<svg width="25" height="24" viewBox="0 0 25 24" fill="none" xmlns="http://www.w3.org/2000/svg">
<g id="search">
<path id="Union" fill-rule="evenodd" clip-rule="evenodd" d="M14.6922 15.6064C13.5236 16.4816 12.0723 17 10.5 17C6.63401 17 3.5 13.866 3.5 10C3.5 6.13401 6.63401 3 10.5 3C14.366 3 17.5 6.13401 17.5 10C17.5 11.5723 16.9816 13.0236 16.1064 14.1922L21.2071 19.2929C21.5976 19.6834 21.5976 20.3166 21.2071 20.7071C20.8166 21.0976 20.1834 21.0976 19.7929 20.7071L14.6922 15.6064ZM15.5 10C15.5 12.7614 13.2614 15 10.5 15C7.73858 15 5.5 12.7614 5.5 10C5.5 7.23858 7.73858 5 10.5 5C13.2614 5 15.5 7.23858 15.5 10Z" fill="black" fill-opacity="0.95"/>
</g>
</svg>
