<svg width="24" height="24" viewBox="0 0 24 24" fill="none" xmlns="http://www.w3.org/2000/svg">
<g id="star=stat-outline">
<path id="Star 1 (Stroke)" fill-rule="evenodd" clip-rule="evenodd" d="M10.6449 4.02678C11.0714 2.65774 12.9286 2.65774 13.3551 4.02678L14.8228 8.73763H19.5724C20.9527 8.73763 21.5266 10.5797 20.4099 11.4258L16.5674 14.3372L18.0351 19.0481C18.4617 20.4171 16.9592 21.5556 15.8425 20.7095L12 17.798L8.15751 20.7095C7.04082 21.5556 5.53834 20.4171 5.96487 19.0481L7.43257 14.3372L3.59008 11.4258C2.4734 10.5797 3.0473 8.73763 4.42759 8.73763H9.17717L10.6449 4.02678ZM12 6.08888L10.8774 9.69215C10.6866 10.3044 10.1395 10.7189 9.52225 10.7189H5.88935L8.82843 12.9459C9.32782 13.3243 9.53679 13.995 9.34604 14.6072L8.22341 18.2105L11.1625 15.9836C11.6619 15.6052 12.3381 15.6052 12.8375 15.9836L15.7766 18.2105L14.654 14.6072C14.4632 13.995 14.6722 13.3243 15.1716 12.9459L18.1106 10.7189H14.4778C13.8605 10.7189 13.3134 10.3044 13.1226 9.69215L12 6.08888Z" fill="#FFC163" fill-opacity="0.95"/>
</g>
</svg>
